<svg
        xmlns="http://www.w3.org/2000/svg"
        xmlns:xlink="http://www.w3.org/1999/xlink"
        width="205px" height="51px">
    <path fill-rule="evenodd"  fill="rgb(18, 0, 100)"
          d="M204.172,49.086 L193.339,49.086 L180.891,34.380 L180.891,49.086 L171.165,49.086 L171.165,0.033 L180.891,0.033 L180.891,29.739 L193.339,15.032 L204.172,15.032 L189.760,32.059 L204.172,49.086 ZM155.487,30.549 C155.487,25.917 152.260,22.682 148.223,22.682 C144.187,22.682 140.960,25.917 140.960,30.549 L140.960,49.086 L131.233,49.086 L131.233,15.049 L140.622,15.049 L140.622,18.662 C142.391,16.695 146.097,13.884 152.101,13.884 C159.438,13.884 165.214,19.666 165.214,27.630 L165.214,49.086 L155.487,49.086 L155.487,30.549 ZM116.434,44.261 L115.884,45.023 C115.846,45.074 112.045,50.224 104.932,50.224 C94.925,50.224 87.660,42.596 87.660,32.087 C87.660,21.541 95.543,13.884 106.404,13.884 C117.343,13.884 125.282,21.541 125.282,32.087 L125.282,49.086 L116.434,49.086 L116.434,44.261 ZM106.698,22.806 C101.591,22.806 97.437,26.960 97.437,32.066 C97.437,37.172 101.591,41.327 106.698,41.327 C111.805,41.327 115.959,37.172 115.959,32.066 C115.959,26.960 111.805,22.806 106.698,22.806 ZM64.145,50.224 C52.918,50.224 45.943,42.977 45.943,31.310 L45.943,0.042 L55.669,0.042 L55.669,18.337 L56.524,17.530 C59.007,15.179 62.386,13.884 66.036,13.884 C75.919,13.884 83.091,21.541 83.091,32.089 C83.091,42.596 75.124,50.224 64.145,50.224 ZM64.483,22.806 C59.377,22.806 55.223,26.960 55.223,32.066 C55.223,37.172 59.377,41.327 64.483,41.327 C69.590,41.327 73.744,37.172 73.744,32.066 C73.744,26.960 69.590,22.806 64.483,22.806 ZM30.142,49.078 L10.506,26.946 L10.506,49.078 L0.667,49.078 L0.667,0.033 L10.506,0.033 L10.506,22.359 L29.750,0.033 L42.202,0.033 L21.066,24.554 L42.789,49.078 L30.142,49.078 Z"/>
</svg>