<svg
        xmlns="http://www.w3.org/2000/svg"
        xmlns:xlink="http://www.w3.org/1999/xlink"
        width="236px" height="58px">
    <path fill-rule="evenodd"  fill="rgb(255, 255, 255)"
          d="M235.433,56.661 L222.948,56.661 L208.603,39.779 L208.603,56.661 L197.395,56.661 L197.395,0.346 L208.603,0.346 L208.603,34.450 L222.948,17.567 L235.433,17.567 L218.825,37.114 L235.433,56.661 ZM179.329,35.380 C179.329,30.062 175.610,26.347 170.958,26.347 C166.307,26.347 162.587,30.062 162.587,35.380 L162.588,56.661 L151.379,56.661 L151.379,17.585 L162.199,17.585 L162.199,21.733 C164.237,19.475 168.508,16.248 175.426,16.248 C183.882,16.248 190.537,22.886 190.537,32.029 L190.537,56.661 L179.329,56.661 L179.329,35.380 ZM134.325,51.121 L133.690,51.997 C133.647,52.056 129.267,57.970 121.070,57.970 C109.537,57.970 101.166,49.213 101.166,37.148 C101.166,25.037 110.250,16.248 122.766,16.248 C135.372,16.248 144.521,25.037 144.521,37.148 L144.521,56.661 L134.325,56.661 L134.325,51.121 ZM123.105,26.489 C117.220,26.489 112.433,31.260 112.433,37.123 C112.433,42.985 117.220,47.755 123.105,47.755 C128.990,47.755 133.777,42.985 133.777,37.123 C133.777,31.260 128.990,26.489 123.105,26.489 ZM74.068,57.970 C61.129,57.970 53.091,49.648 53.091,36.253 L53.091,0.354 L64.299,0.354 L64.299,21.360 L65.285,20.434 C68.147,17.734 72.040,16.250 76.247,16.250 C87.635,16.250 95.901,25.038 95.901,37.150 C95.901,49.214 86.719,57.970 74.068,57.970 ZM74.457,26.489 C68.573,26.489 63.785,31.260 63.785,37.123 C63.785,42.985 68.573,47.755 74.457,47.755 C80.342,47.755 85.129,42.985 85.129,37.123 C85.129,31.260 80.342,26.489 74.457,26.489 ZM34.882,56.653 L12.254,31.244 L12.254,56.653 L0.916,56.653 L0.916,0.346 L12.254,0.346 L12.254,25.978 L34.431,0.346 L48.780,0.346 L24.423,28.499 L49.457,56.653 L34.882,56.653 Z"/>
</svg>